<svg xmlns="http://www.w3.org/2000/svg" xmlns:xlink="http://www.w3.org/1999/xlink" height="384" viewBox="0 0 720 288" width="960" stroke-linecap="butt" stroke-linejoin="round" xmlns:v="https://vecta.io/nano"><style><![CDATA[.B{stroke-linecap:butt}.C{stroke-linejoin:round}]]></style><path d="M0 288h720V0H0z" fill="#fff"/><path clip-path="url(#D)" d="M156.96 145.44l66.96-68.302m-66.96 68.302l66.96 68.302m-22.32-23.063l89.28-90.478m-89.28 0l33.48 34.151m33.48 33.264l22.32 23.063" stroke-linecap="square" fill="none" stroke="#00a4ef" stroke-width="28"/><g transform="matrix(1.8 0 0 -1.8 335.52 211.968)"><defs><path d="M628 4666h941l1190-3175 1197 3175h941V0h-616v4097L3078 897h-634L1241 4097V0H628v4666z" id="A" transform="scale(.015625)" class="B C"/><path d="M2194 1759q-697 0-966-159-269-159-269-544 0-306 202-486 202-179 548-179 479 0 768 339 289 339 289 901v128h-572zm1147 238V0h-575v531q-197-318-491-470-294-152-719-152-537 0-855 302-317 302-317 808 0 590 395 890 396 300 1180 300h807v57q0 397-261 614-261 217-733 217-300 0-585-72-284-72-546-216v532q315 122 612 182 297 61 578 61 760 0 1135-394 375-393 375-1193z" id="B" transform="scale(.015625)" class="B C"/><path d="M3513 3500L2247 1797 3578 0h-678L1881 1375 863 0H184l1360 1831L300 3500h678l928-1247 928 1247h679z" id="C" transform="scale(.015625)" class="B C"/></defs><use xlink:href="#A"/><use x="86.279" xlink:href="#B"/><use x="147.559" xlink:href="#C"/></g><defs><clipPath id="D"><path d="M90 34.56h558v221.76H90z" class="B C"/></clipPath></defs></svg>